<svg width="21" height="17" viewBox="0 0 21 17" fill="none" xmlns="http://www.w3.org/2000/svg">
<circle cx="10.5" cy="9" r="3" fill="#A2A9C8"/>
<path d="M19 1L3 16" stroke="#A2A9C8" stroke-width="2" stroke-linecap="round" stroke-linejoin="round"/>
<path d="M1.61976 9.41153C1.54866 9.34807 1.48124 9.28725 1.41769 9.22938C1.49041 9.15691 1.56845 9.07996 1.65149 8.9991C2.23557 8.43043 3.06188 7.67404 4.03227 6.92011C6.02846 5.36917 8.41998 4 10.5 4C12.58 4 14.9715 5.36917 16.9677 6.92011C17.9381 7.67404 18.7644 8.43043 19.3485 8.9991C19.4316 9.07996 19.5096 9.15691 19.5823 9.22938C19.5188 9.28725 19.4513 9.34807 19.3802 9.41153C18.7969 9.93213 17.9712 10.625 17.0011 11.3159C15.0123 12.7323 12.6084 14 10.5 14C8.39162 14 5.98768 12.7323 3.99885 11.3159C3.0288 10.625 2.20308 9.93213 1.61976 9.41153Z" stroke="#A2A9C8" stroke-width="2" stroke-linecap="round" stroke-linejoin="round"/>
</svg>
