<svg width="21" height="12" viewBox="0 0 21 12" fill="none" xmlns="http://www.w3.org/2000/svg">
<circle cx="10.5" cy="6" r="3" fill="#A2A9C8"/>
<path d="M1.61976 6.41153C1.54866 6.34807 1.48124 6.28725 1.41769 6.22938C1.49041 6.15691 1.56845 6.07996 1.65149 5.9991C2.23557 5.43043 3.06188 4.67404 4.03227 3.92011C6.02846 2.36917 8.41998 1 10.5 1C12.58 1 14.9715 2.36917 16.9677 3.92011C17.9381 4.67404 18.7644 5.43043 19.3485 5.9991C19.4316 6.07996 19.5096 6.15691 19.5823 6.22938C19.5188 6.28725 19.4513 6.34807 19.3802 6.41153C18.7969 6.93213 17.9712 7.62502 17.0011 8.3159C15.0123 9.73234 12.6084 11 10.5 11C8.39162 11 5.98768 9.73234 3.99885 8.3159C3.0288 7.62503 2.20308 6.93213 1.61976 6.41153Z" stroke="#A2A9C8" stroke-width="2" stroke-linecap="round" stroke-linejoin="round"/>
</svg>
